<?xml version="1.0" encoding="utf-8"?>
<!-- Generated by IcoMoon.io -->
<!DOCTYPE svg PUBLIC "-//W3C//DTD SVG 1.1//EN" "http://www.w3.org/Graphics/SVG/1.1/DTD/svg11.dtd">
<svg version="1.1" xmlns="http://www.w3.org/2000/svg" xmlns:xlink="http://www.w3.org/1999/xlink" width="32" height="32" viewBox="0 0 32 32">
<path fill="#000" d="M32 23.94c0 1.37-1.128 2.499-2.499 2.499s-2.499-1.128-2.499-2.499 1.128-2.499 2.499-2.499c1.37 0 2.499 1.128 2.499 2.499z"></path>
<path fill="#000" d="M3.788 23.214h23.698v1.451h-23.698c0 0 0-1.451 0-1.451z"></path>
<path fill="#000" d="M0 21.441h3.788v4.997h-3.788v-4.997z"></path>
<path fill="#000" d="M13.219 15.395h-5.562l-1.29 3.466h-1.854l5.159-13.3h1.612l5.078 13.3h-1.854l-1.29-3.466zM8.222 13.945h4.514l-2.257-6.126-2.257 6.126z"></path>
<path fill="#000" d="M18.297 18.861v-13.3h4.353c1.37 0 2.499 0.322 3.224 0.887 0.806 0.564 1.209 1.532 1.209 2.741 0 0.564-0.161 1.128-0.564 1.612s-0.887 0.806-1.451 1.048c0.806 0.161 1.451 0.564 1.934 1.209s0.725 1.37 0.725 2.176c0 1.209-0.403 2.176-1.209 2.821s-1.854 0.967-3.224 0.967l-4.997-0.161zM20.071 11.204h2.902c0.645 0 1.209-0.161 1.612-0.564s0.645-0.887 0.645-1.531c0-0.725-0.242-1.29-0.645-1.612-0.484-0.322-1.128-0.564-1.934-0.564h-2.579c0 0.081 0 4.272 0 4.272zM20.071 12.655v4.836h3.144c0.806 0 1.451-0.161 1.934-0.645 0.484-0.403 0.725-0.967 0.725-1.693 0-0.806-0.161-1.37-0.564-1.854-0.403-0.403-0.967-0.645-1.773-0.645h-3.466z"></path>
</svg>
