<?xml version="1.0" encoding="utf-8"?>
<!-- Generated by IcoMoon.io -->
<!DOCTYPE svg PUBLIC "-//W3C//DTD SVG 1.1//EN" "http://www.w3.org/Graphics/SVG/1.1/DTD/svg11.dtd">
<svg version="1.1" xmlns="http://www.w3.org/2000/svg" xmlns:xlink="http://www.w3.org/1999/xlink" width="32" height="32" viewBox="0 0 32 32">
<path fill="#000" d="M26.438 27.164h-20.957c-3.063 0-5.562-2.499-5.562-5.562v-11.285c0.081-3.063 2.579-5.481 5.642-5.481h20.957c3.063 0 5.562 2.499 5.562 5.562v11.365c-0.081 2.982-2.579 5.401-5.642 5.401zM5.562 7.093c-1.773 0-3.224 1.451-3.224 3.224v11.365c0 1.773 1.451 3.224 3.224 3.224h20.957c1.773 0 3.224-1.451 3.224-3.224v-11.365c0-1.773-1.451-3.224-3.224-3.224-0.081 0-20.957 0-20.957 0z"></path>
<path fill="#000" d="M15.879 19.426c-1.451 0-2.821-0.564-3.869-1.612l-10.156-10.156 1.612-1.612 10.156 10.076c1.209 1.209 3.305 1.209 4.514 0l10.156-10.076 1.612 1.612-10.156 10.156c-1.048 1.048-2.499 1.612-3.869 1.612v0z"></path>
</svg>
